<svg aria-hidden="true" style="position: absolute; width: 0; height: 0; overflow: hidden;" version="1.1" xmlns="http://www.w3.org/2000/svg" xmlns:xlink="http://www.w3.org/1999/xlink">
<defs>
<symbol id="facebook" viewBox="0 0 32 32">
<path d="M23.991 0.82c-0.503-0.075-2.236-0.224-4.248-0.224-4.211 0-7.099 2.571-7.099 7.286v4.062h-4.752v5.516h4.752v14.143h5.702v-14.143h4.733l0.727-5.516h-5.46v-3.522c0-1.584 0.429-2.683 2.721-2.683h2.925v-4.919z"></path>
</symbol>
<symbol id="google" viewBox="0 0 32 32">
<path d="M24.634 16.2c0-0.823-0.086-1.457-0.206-2.091h-11.863v4.32h7.131c-0.291 1.834-2.16 5.417-7.131 5.417-4.286 0-7.783-3.549-7.783-7.937s3.497-7.937 7.783-7.937c2.451 0 4.080 1.046 5.006 1.937l3.411-3.274c-2.194-2.057-5.023-3.291-8.417-3.291-6.943 0-12.566 5.623-12.566 12.566s5.623 12.566 12.566 12.566c7.251 0 12.069-5.091 12.069-12.274zM39.497 14.109h-3.583v-3.583h-3.6v3.583h-3.583v3.6h3.583v3.583h3.6v-3.583h3.583v-3.6z"></path>
</symbol>
<symbol id="info-button" viewBox="0 0 32 32">
<path d="M31.978 15.763c0-8.704-7.159-15.761-15.989-15.761s-15.989 7.056-15.989 15.761c0 8.704 7.159 15.761 15.989 15.761s15.989-7.056 15.989-15.761zM30.699 15.763c0 8.008-6.586 14.5-14.71 14.5s-14.71-6.492-14.71-14.5c0-8.008 6.586-14.5 14.71-14.5s14.71 6.492 14.71 14.5zM13.431 12.611h3.837v10.717h1.279v0.63h-5.116v-0.63h1.279v-10.087h-1.279v-0.63zM17.908 9.459c0-1.045-0.859-1.891-1.919-1.891s-1.919 0.847-1.919 1.891 0.859 1.891 1.919 1.891c1.060 0 1.919-0.847 1.919-1.891z"></path>
</symbol>
<symbol id="pinterest" viewBox="0 0 32 32">
<path d="M31.085 18.805c0-8.26-6.701-14.961-14.961-14.961s-14.961 6.701-14.961 14.961c0 6.136 3.682 11.396 8.961 13.714-0.039-1.052-0.019-2.318 0.253-3.448 0 0 0.292-1.208 1.929-8.143-0.487-0.955-0.487-2.377-0.487-2.377 0-2.221 1.286-3.877 2.883-3.877 1.364 0 2.026 1.032 2.026 2.26 0 1.364-0.877 3.409-1.325 5.299-0.37 1.597 0.799 2.883 2.357 2.883 2.844 0 4.753-3.643 4.753-7.948 0-3.292-2.221-5.747-6.234-5.747-4.539 0-7.364 3.39-7.364 7.169 0 1.305 0.39 2.221 0.994 2.942 0.273 0.331 0.312 0.448 0.214 0.838-0.078 0.273-0.234 0.935-0.312 1.188-0.097 0.39-0.409 0.526-0.74 0.39-2.084-0.857-3.058-3.156-3.058-5.727 0-4.247 3.584-9.351 10.675-9.351 5.727 0 9.487 4.149 9.487 8.571 0 5.883-3.273 10.266-8.084 10.266-1.617 0-3.136-0.877-3.643-1.87-0.877 3.448-1.052 4.11-1.052 4.11-0.312 1.149-0.955 2.299-1.519 3.195 1.364 0.409 2.766 0.623 4.247 0.623 8.26 0 14.961-6.701 14.961-14.961z"></path>
</symbol>
<symbol id="search" viewBox="0 0 32 32">
<path d="M21.516 4.258c-4.687-4.687-12.337-4.637-17.086 0.113s-4.8 12.399-0.113 17.086c4.347 4.347 11.244 4.619 16.010 0.846l9.283 9.283 2.205-2.205-9.305-9.305c3.616-4.758 3.295-11.529-0.995-15.818zM20.634 5.14c4.206 4.206 4.161 11.071-0.101 15.334s-11.127 4.308-15.334 0.101c-4.206-4.206-4.161-11.071 0.101-15.334s11.127-4.307 15.334-0.101z"></path>
</symbol>
<symbol id="twitter" viewBox="0 0 32 32">
<path d="M31.558 7.117c-1.13 0.487-2.357 0.838-3.623 0.974 1.305-0.779 2.299-2.006 2.766-3.468-1.208 0.721-2.571 1.247-3.993 1.519-1.149-1.227-2.786-1.987-4.597-1.987-3.487 0-6.292 2.825-6.292 6.292 0 0.487 0.058 0.974 0.156 1.442-5.221-0.273-9.877-2.766-12.974-6.584-0.545 0.935-0.857 2.006-0.857 3.175 0 2.182 1.11 4.11 2.805 5.24-1.032-0.039-2.006-0.331-2.844-0.799 0 0.019 0 0.058 0 0.078 0 3.058 2.162 5.591 5.045 6.175-0.526 0.136-1.091 0.214-1.656 0.214-0.409 0-0.799-0.039-1.188-0.097 0.799 2.494 3.117 4.305 5.883 4.364-2.162 1.695-4.87 2.688-7.812 2.688-0.526 0-1.013-0.020-1.519-0.078 2.786 1.792 6.097 2.825 9.662 2.825 11.571 0 17.903-9.584 17.903-17.903 0-0.273 0-0.545-0.020-0.818 1.227-0.896 2.299-2.006 3.156-3.253z"></path>
</symbol>
<symbol id="burger" viewBox="0 0 38 32">
<path d="M38.4 27.2c0-0.875-0.725-1.6-1.6-1.6h-35.2c-0.875 0-1.6 0.725-1.6 1.6v3.2c0 0.875 0.725 1.6 1.6 1.6h35.2c0.875 0 1.6-0.725 1.6-1.6v-3.2zM38.4 14.4c0-0.875-0.725-1.6-1.6-1.6h-35.2c-0.875 0-1.6 0.725-1.6 1.6v3.2c0 0.875 0.725 1.6 1.6 1.6h35.2c0.875 0 1.6-0.725 1.6-1.6v-3.2zM38.4 1.6c0-0.875-0.725-1.6-1.6-1.6h-35.2c-0.875 0-1.6 0.725-1.6 1.6v3.2c0 0.875 0.725 1.6 1.6 1.6h35.2c0.875 0 1.6-0.725 1.6-1.6v-3.2z"></path>
</symbol>
<symbol id="quote" viewBox="0 0 38 32">
<path d="M17.27 4.656c0-2.384-1.934-4.317-4.317-4.317h-8.635c-2.384 0-4.317 1.934-4.317 4.317v8.635c0 2.384 1.934 4.317 4.317 4.317h5.037c1.192 0 2.159 0.967 2.159 2.159v0.72c0 3.171-2.586 5.757-5.757 5.757h-1.439c-0.787 0-1.439 0.652-1.439 1.439v2.878c0 0.787 0.652 1.439 1.439 1.439h1.439c6.341 0 11.513-5.172 11.513-11.513v-15.831zM37.418 4.656c0-2.384-1.934-4.317-4.317-4.317h-8.635c-2.384 0-4.317 1.934-4.317 4.317v8.635c0 2.384 1.934 4.317 4.317 4.317h5.037c1.192 0 2.159 0.967 2.159 2.159v0.72c0 3.171-2.586 5.757-5.757 5.757h-1.439c-0.787 0-1.439 0.652-1.439 1.439v2.878c0 0.787 0.652 1.439 1.439 1.439h1.439c6.341 0 11.513-5.172 11.513-11.513v-15.831z"></path>
</symbol>
<symbol id="up-page" viewBox="0 0 32 32">
<path d="M1.087 15.185l14.399-14.399 15.377 15.377-1.543 1.543-13.759-13.759-12.856 12.857-1.619-1.619z"></path>
</symbol>
<symbol id="arrow-right" viewBox="0 0 32 32">
<path d="M19.414 27.414l10-10c0.781-0.781 0.781-2.047 0-2.828l-10-10c-0.781-0.781-2.047-0.781-2.828 0s-0.781 2.047 0 2.828l6.586 6.586h-19.172c-1.105 0-2 0.895-2 2s0.895 2 2 2h19.172l-6.586 6.586c-0.39 0.39-0.586 0.902-0.586 1.414s0.195 1.024 0.586 1.414c0.781 0.781 2.047 0.781 2.828 0z"></path>
</symbol>
<symbol id="info-btn-white" viewBox="0 0 28 32">
<path fill="#fff" style="fill: var(--color1, #fff)" d="M27.981 15.791c0-7.616-6.264-13.791-13.991-13.791s-13.991 6.174-13.991 13.791 6.264 13.791 13.991 13.791c7.727 0 13.991-6.174 13.991-13.791zM26.862 15.791c0 7.007-5.763 12.687-12.871 12.687s-12.871-5.68-12.871-12.687 5.763-12.687 12.871-12.687c7.109 0 12.871 5.68 12.871 12.687zM11.752 13.033h3.358v9.378h1.119v0.552h-4.477v-0.552h1.119v-8.826h-1.119v-0.552zM15.669 10.274c0-0.914-0.752-1.655-1.679-1.655s-1.679 0.741-1.679 1.655c0 0.914 0.752 1.655 1.679 1.655s1.679-0.741 1.679-1.655z"></path>
</symbol>
<symbol id="quote" viewBox="0 0 38 32">
<path d="M17.27 4.656c0-2.384-1.934-4.317-4.317-4.317h-8.635c-2.384 0-4.317 1.934-4.317 4.317v8.635c0 2.384 1.934 4.317 4.317 4.317h5.037c1.192 0 2.159 0.967 2.159 2.159v0.72c0 3.171-2.586 5.757-5.757 5.757h-1.439c-0.787 0-1.439 0.652-1.439 1.439v2.878c0 0.787 0.652 1.439 1.439 1.439h1.439c6.341 0 11.513-5.172 11.513-11.513v-15.831zM37.418 4.656c0-2.384-1.934-4.317-4.317-4.317h-8.635c-2.384 0-4.317 1.934-4.317 4.317v8.635c0 2.384 1.934 4.317 4.317 4.317h5.037c1.192 0 2.159 0.967 2.159 2.159v0.72c0 3.171-2.586 5.757-5.757 5.757h-1.439c-0.787 0-1.439 0.652-1.439 1.439v2.878c0 0.787 0.652 1.439 1.439 1.439h1.439c6.341 0 11.513-5.172 11.513-11.513v-15.831z"></path>
</symbol>
<symbol id="cross" viewBox="0 0 32 32">
<path d="M31.708 25.708c-0-0-0-0-0-0l-9.708-9.708 9.708-9.708c0-0 0-0 0-0 0.105-0.105 0.18-0.227 0.229-0.357 0.133-0.356 0.057-0.771-0.229-1.057l-4.586-4.586c-0.286-0.286-0.702-0.361-1.057-0.229-0.13 0.048-0.252 0.124-0.357 0.228 0 0-0 0-0 0l-9.708 9.708-9.708-9.708c-0-0-0-0-0-0-0.105-0.104-0.227-0.18-0.357-0.228-0.356-0.133-0.771-0.057-1.057 0.229l-4.586 4.586c-0.286 0.286-0.361 0.702-0.229 1.057 0.049 0.13 0.124 0.252 0.229 0.357 0 0 0 0 0 0l9.708 9.708-9.708 9.708c-0 0-0 0-0 0-0.104 0.105-0.18 0.227-0.229 0.357-0.133 0.355-0.057 0.771 0.229 1.057l4.586 4.586c0.286 0.286 0.702 0.361 1.057 0.229 0.13-0.049 0.252-0.124 0.357-0.229 0-0 0-0 0-0l9.708-9.708 9.708 9.708c0 0 0 0 0 0 0.105 0.105 0.227 0.18 0.357 0.229 0.356 0.133 0.771 0.057 1.057-0.229l4.586-4.586c0.286-0.286 0.362-0.702 0.229-1.057-0.049-0.13-0.124-0.252-0.229-0.357z"></path>
</symbol>
<symbol id="phone" viewBox="0 0 32 32">
<path d="M22 20c-2 2-2 4-4 4s-4-2-6-4-4-4-4-6 2-2 4-4-4-8-6-8-6 6-6 6c0 4 4.109 12.109 8 16s12 8 16 8c0 0 6-4 6-6s-6-8-8-6z"></path>
</symbol>
</defs>
</svg>
